<svg xmlns="http://www.w3.org/2000/svg"
     width="822.575mm" height="820.459mm"
     viewBox="0 0 2332 2326">
  <path id="Selection"
        fill="none" stroke="black" stroke-width="1"
        d="M 1092.00,0.14
           C 1092.00,0.14 1141.00,0.14 1141.00,0.14
             1141.00,0.14 1232.00,0.14 1232.00,0.14
             1232.00,0.14 1244.00,0.96 1244.00,0.96
             1244.00,0.96 1256.00,0.96 1256.00,0.96
             1256.00,0.96 1275.00,2.00 1275.00,2.00
             1275.00,2.00 1285.00,2.91 1285.00,2.91
             1285.00,2.91 1346.00,8.72 1346.00,8.72
             1418.81,18.22 1477.87,31.18 1548.00,52.98
             1654.47,86.07 1754.93,136.70 1847.00,199.34
             1895.71,232.48 1941.47,270.28 1984.00,310.96
             1984.00,310.96 2013.96,340.00 2013.96,340.00
             2105.02,435.20 2176.72,539.26 2231.69,659.00
             2271.42,745.52 2298.70,837.41 2315.58,931.00
             2321.35,963.04 2325.82,998.56 2328.09,1031.00
             2328.09,1031.00 2330.00,1057.00 2330.00,1057.00
             2330.00,1057.00 2331.04,1071.00 2331.04,1071.00
             2331.04,1071.00 2331.04,1086.00 2331.04,1086.00
             2331.04,1086.00 2332.00,1098.00 2332.00,1098.00
             2332.00,1098.00 2332.00,1230.00 2332.00,1230.00
             2332.00,1230.00 2331.00,1245.00 2331.00,1245.00
             2331.00,1245.00 2331.00,1255.00 2331.00,1255.00
             2331.00,1255.00 2330.00,1272.00 2330.00,1272.00
             2330.00,1272.00 2329.09,1282.00 2329.09,1282.00
             2329.09,1282.00 2327.17,1306.00 2327.17,1306.00
             2323.42,1344.67 2318.23,1382.86 2310.60,1421.00
             2285.01,1548.93 2239.23,1667.89 2172.40,1780.00
             2130.03,1851.06 2079.19,1917.25 2022.04,1977.00
             2022.04,1977.00 1993.00,2006.96 1993.00,2006.96
             1829.15,2163.68 1633.87,2265.61 1411.00,2307.39
             1375.49,2314.05 1334.98,2319.57 1299.00,2322.09
             1299.00,2322.09 1272.00,2324.00 1272.00,2324.00
             1272.00,2324.00 1258.00,2325.04 1258.00,2325.04
             1258.00,2325.04 1244.00,2325.04 1244.00,2325.04
             1244.00,2325.04 1232.00,2326.00 1232.00,2326.00
             1232.00,2326.00 1098.00,2326.00 1098.00,2326.00
             1098.00,2326.00 1083.00,2325.00 1083.00,2325.00
             1083.00,2325.00 1057.00,2324.00 1057.00,2324.00
             1057.00,2324.00 1047.00,2323.09 1047.00,2323.09
             1012.85,2320.75 978.82,2317.09 945.00,2311.41
             873.96,2299.49 807.71,2282.82 740.00,2258.05
             496.54,2169.01 294.34,2003.14 160.20,1781.00
             92.95,1669.62 46.49,1546.44 21.00,1419.00
             12.83,1378.15 6.81,1336.52 3.91,1295.00
             3.91,1295.00 2.00,1269.00 2.00,1269.00
             2.00,1269.00 0.96,1253.00 0.96,1253.00
             0.96,1253.00 0.96,1240.00 0.96,1240.00
             0.96,1240.00 0.00,1228.00 0.00,1228.00
             0.00,1228.00 0.00,1096.00 0.00,1096.00
             0.00,1096.00 1.00,1081.00 1.00,1081.00
             1.00,1081.00 2.00,1054.00 2.00,1054.00
             2.00,1054.00 3.83,1032.00 3.83,1032.00
             3.83,1032.00 6.17,1004.00 6.17,1004.00
             6.17,1004.00 13.58,949.00 13.58,949.00
             28.84,850.68 58.78,749.45 100.31,659.00
             155.28,539.26 226.98,435.20 318.04,340.00
             318.04,340.00 348.00,310.96 348.00,310.96
             467.46,196.70 618.30,105.75 776.00,55.34
             851.13,31.33 918.80,16.94 997.00,7.28
             1015.46,5.01 1042.73,2.21 1061.00,2.00
             1061.00,2.00 1074.00,1.00 1074.00,1.00
             1074.00,1.00 1092.00,0.14 1092.00,0.14 Z
           M 1127.00,1128.00
           C 1127.00,1128.00 1172.00,1120.42 1172.00,1120.42
             1204.62,1114.54 1237.02,1106.81 1269.00,1098.15
             1320.15,1084.30 1366.84,1067.42 1415.00,1045.31
             1444.50,1031.76 1475.82,1015.04 1502.00,995.85
             1564.83,949.77 1613.17,880.54 1633.12,805.00
             1642.45,769.63 1646.06,739.50 1646.00,703.00
             1646.00,703.00 1644.96,691.00 1644.96,691.00
             1644.96,691.00 1644.96,682.00 1644.96,682.00
             1644.96,682.00 1638.80,640.00 1638.80,640.00
             1624.66,569.29 1591.92,512.51 1543.09,460.00
             1475.99,387.86 1391.68,339.12 1300.00,304.95
             1221.23,275.59 1136.32,257.67 1053.00,247.28
             1053.00,247.28 1000.00,241.83 1000.00,241.83
             1000.00,241.83 961.00,238.91 961.00,238.91
             961.00,238.91 951.00,238.00 951.00,238.00
             951.00,238.00 926.00,237.00 926.00,237.00
             926.00,237.00 912.00,236.00 912.00,236.00
             912.00,236.00 895.00,236.00 895.00,236.00
             895.00,236.00 879.00,235.00 879.00,235.00
             879.00,235.00 796.00,235.00 796.00,235.00
             796.00,235.00 781.00,236.00 781.00,236.00
             781.00,236.00 762.00,236.00 762.00,236.00
             762.00,236.00 746.00,237.00 746.00,237.00
             746.00,237.00 719.00,238.00 719.00,238.00
             719.00,238.00 705.00,239.00 705.00,239.00
             705.00,239.00 649.00,242.91 649.00,242.91
             649.00,242.91 618.00,245.65 618.00,245.65
             614.32,246.75 598.17,257.25 594.00,260.00
             594.00,260.00 549.00,290.58 549.00,290.58
             493.97,329.91 436.95,378.59 390.91,428.00
             390.91,428.00 379.17,440.00 379.17,440.00
             350.49,471.70 322.62,504.31 297.58,539.00
             297.58,539.00 275.67,570.00 275.67,570.00
             272.22,575.17 267.90,580.03 266.00,586.00
             266.00,586.00 525.00,586.00 525.00,586.00
             525.00,586.00 655.00,586.00 655.00,586.00
             655.00,586.00 670.00,587.00 670.00,587.00
             670.00,587.00 1088.00,587.00 1088.00,587.00
             1099.81,587.02 1123.67,591.35 1136.00,593.58
             1166.43,599.06 1194.46,604.38 1222.00,619.31
             1271.51,646.15 1306.58,698.77 1311.08,755.00
             1311.08,755.00 1312.00,765.00 1312.00,765.00
             1312.21,783.08 1310.64,798.49 1305.85,816.00
             1302.20,829.32 1296.70,843.02 1289.85,855.00
             1257.06,912.35 1197.22,942.36 1135.00,957.12
             1135.00,957.12 1101.00,963.61 1101.00,963.61
             1101.00,963.61 863.00,1007.42 863.00,1007.42
             863.00,1007.42 700.00,1037.58 700.00,1037.58
             700.00,1037.58 576.00,1060.39 576.00,1060.39
             576.00,1060.39 541.00,1066.80 541.00,1066.80
             535.74,1067.81 528.53,1068.35 524.00,1071.00
             524.00,1071.00 575.00,1084.12 575.00,1084.12
             575.00,1084.12 660.00,1106.85 660.00,1106.85
             753.25,1132.07 846.39,1157.79 939.00,1185.28
             1035.71,1213.98 1132.08,1243.40 1228.00,1274.67
             1228.00,1274.67 1365.00,1321.31 1365.00,1321.31
             1365.00,1321.31 1471.00,1359.05 1471.00,1359.05
             1567.92,1394.50 1664.06,1432.40 1759.00,1472.85
             1838.53,1506.73 1917.22,1542.61 1995.00,1580.26
             1995.00,1580.26 2079.00,1622.26 2079.00,1622.26
             2079.00,1622.26 2107.00,1636.78 2107.00,1636.78
             2107.00,1636.78 2123.00,1645.00 2123.00,1645.00
             2123.00,1645.00 2138.25,1615.00 2138.25,1615.00
             2164.07,1563.36 2183.77,1509.69 2202.00,1455.00
             2202.00,1455.00 2104.00,1425.28 2104.00,1425.28
             2104.00,1425.28 1936.00,1374.28 1936.00,1374.28
             1936.00,1374.28 1451.00,1226.72 1451.00,1226.72
             1451.00,1226.72 1234.00,1160.72 1234.00,1160.72
             1234.00,1160.72 1168.00,1140.72 1168.00,1140.72
             1168.00,1140.72 1127.00,1128.00 1127.00,1128.00 Z
           M 1816.00,2011.00
           C 1813.65,2003.91 1801.51,1989.54 1796.42,1983.00
             1796.42,1983.00 1760.20,1936.00 1760.20,1936.00
             1714.88,1879.13 1668.66,1823.23 1619.09,1770.00
             1541.51,1686.70 1465.19,1616.15 1375.00,1546.65
             1289.05,1480.43 1197.04,1422.50 1103.00,1368.58
             1103.00,1368.58 1009.00,1316.69 1009.00,1316.69
             1009.00,1316.69 933.00,1277.26 933.00,1277.26
             933.00,1277.26 848.00,1239.15 848.00,1239.15
             760.66,1201.94 668.95,1175.99 576.00,1157.40
             576.00,1157.40 507.00,1145.58 507.00,1145.58
             500.69,1144.64 483.09,1141.00 478.00,1143.00
             478.00,1143.00 538.00,1169.14 538.00,1169.14
             538.00,1169.14 674.00,1231.22 674.00,1231.22
             794.82,1288.30 907.66,1349.02 1017.00,1426.42
             1062.57,1458.68 1110.11,1495.97 1152.00,1532.85
             1152.00,1532.85 1185.00,1562.09 1185.00,1562.09
             1185.00,1562.09 1205.00,1581.99 1205.00,1581.99
             1205.00,1581.99 1215.00,1591.04 1215.00,1591.04
             1215.00,1591.04 1247.99,1624.00 1247.99,1624.00
             1247.99,1624.00 1258.01,1635.00 1258.01,1635.00
             1258.01,1635.00 1275.96,1653.00 1275.96,1653.00
             1340.62,1720.60 1401.49,1792.60 1455.58,1869.00
             1492.97,1921.82 1527.06,1977.48 1556.74,2035.00
             1556.74,2035.00 1589.70,2104.00 1589.70,2104.00
             1589.70,2104.00 1605.00,2139.00 1605.00,2139.00
             1610.98,2137.29 1620.10,2132.20 1626.00,2129.25
             1626.00,2129.25 1662.00,2110.78 1662.00,2110.78
             1698.75,2091.38 1734.93,2069.09 1769.00,2045.28
             1769.00,2045.28 1816.00,2011.00 1816.00,2011.00 Z" />
</svg>
